<svg width="574" height="95" viewBox="0 0 574 95" fill="none" xmlns="http://www.w3.org/2000/svg">
<path d="M56.8048 48.8618C61.2783 49.2092 65.1675 51.1103 68.4907 54.5469C71.7956 58.0017 73.4572 62.7362 73.4572 68.7685C73.4572 76.1718 71.0105 82.0762 66.0987 86.4816C61.187 90.8688 54.1389 93.0806 44.9179 93.0806H0V6.47104H44.8084C52.7329 6.47104 59.0689 8.62805 63.8528 12.9421C68.6368 17.2561 71.0105 22.9777 71.0105 30.1251C71.0105 35.5542 69.5132 39.8682 66.5004 43.0489C63.4877 46.2296 60.2558 48.0027 56.823 48.35V48.8618H56.8048ZM21.3086 42.2628H39.8966C43.0737 42.2628 45.6118 41.3854 47.5108 39.6123C49.4097 37.8391 50.3592 35.4993 50.3592 32.5746C50.3592 29.9057 49.428 27.7487 47.5838 26.1035C45.7396 24.4583 43.4389 23.654 40.6818 23.654H21.3086V42.2628ZM41.193 75.8793C44.5527 75.8793 47.1456 75.0202 49.008 73.3019C50.8522 71.5836 51.7834 69.2072 51.7834 66.1911C51.7834 63.3394 50.8339 61.091 48.935 59.4093C47.036 57.7275 44.5893 56.8867 41.5765 56.8867H21.3086V75.8793H41.193ZM147.426 93.0623H126.774V86.8655C121.607 92.2946 114.979 95 106.89 95C99.3125 95 93.2321 92.514 88.6125 87.5601C84.0111 82.6063 81.7105 76.0804 81.7105 67.9825V28.1874H102.234V63.5953C102.234 67.3793 103.275 70.4685 105.338 72.8449C107.401 75.2213 110.067 76.3912 113.336 76.3912C117.554 76.3912 120.84 74.9105 123.214 71.9309C125.588 68.9513 126.756 64.4179 126.756 58.2942V28.1874H147.407V93.0623H147.426ZM211.041 93.0623H156.355V89.1687L182.064 44.6027H156.994V28.1874H210.731V32.081L185.022 76.6471H211.041V93.0623ZM274.657 93.0623H219.97V89.1687L245.679 44.6027H220.591V28.1874H274.328V32.081L248.619 76.6471H274.638V93.0623H274.657ZM305.369 43.4327H342.727V62.0416H305.369V93.0623H284.06V6.47104H346.16V25.2078H305.369V43.4327ZM494.079 65.9169H446.568C447.792 73.96 453.799 78.4568 462.892 78.4568C470.05 78.4568 477.116 75.6417 482.411 71.5653L490.336 85.3117C483.087 91.5451 473.683 95 462.892 95C441.163 95 426.3 81.7472 426.3 60.6157C426.3 50.6167 429.624 42.3908 436.233 35.9198C442.862 29.4487 450.987 26.2315 460.628 26.2315C470.013 26.2315 477.883 29.3756 484.255 35.6638C490.628 41.9521 493.896 50.2694 494.061 60.6157V65.9169H494.079ZM452.247 45.7543C449.672 47.564 447.901 50.0683 446.952 53.249H473.683C472.734 49.8855 471.109 47.3446 468.772 45.6263C466.453 43.908 463.732 43.0489 460.646 43.0489C457.633 43.0489 454.84 43.9446 452.247 45.7543V45.7543ZM418.54 65.9169H371.029C372.253 73.96 378.26 78.4568 387.353 78.4568C394.511 78.4568 401.577 75.6417 406.872 71.5653L414.797 85.3117C407.548 91.5451 398.145 95 387.353 95C365.625 95 350.762 81.7472 350.762 60.6157C350.762 50.6167 354.085 42.3908 360.695 35.9198C367.323 29.4487 375.448 26.2315 385.089 26.2315C394.474 26.2315 402.344 29.3756 408.717 35.6638C415.089 41.9521 418.358 50.2694 418.522 60.6157V65.9169H418.54ZM376.708 45.7543C374.133 47.564 372.362 50.0683 371.413 53.249H398.145C397.195 49.8855 395.57 47.3446 393.233 45.6263C390.914 43.908 388.193 43.0489 385.107 43.0489C382.076 43.0489 379.283 43.9446 376.708 45.7543V45.7543ZM574 93.0623H553.349V87.8892C548.09 92.6236 541.389 95 533.209 95C524.426 95 516.958 91.7828 510.805 85.3666C504.651 78.9504 501.565 70.6879 501.565 60.6157C501.565 50.6167 504.651 42.3908 510.805 35.9198C516.958 29.4487 524.426 26.2315 533.209 26.2315C541.389 26.2315 548.108 28.6079 553.349 33.3423V0H574V93.0623ZM548.638 72.7169C551.778 69.5728 553.349 65.5513 553.349 60.634C553.349 55.8082 551.778 51.8049 548.638 48.6059C545.497 45.4252 541.772 43.8166 537.463 43.8166C532.898 43.8166 529.155 45.3887 526.234 48.5328C523.312 51.6769 521.851 55.6985 521.851 60.6157C521.851 65.6061 523.312 69.6642 526.234 72.7718C529.155 75.8794 532.898 77.4331 537.463 77.4331C541.772 77.4331 545.497 75.8611 548.638 72.7169Z" fill="#9D9D9D"/>
</svg>
