<svg width="218" height="171" viewBox="0 0 218 171" fill="none" xmlns="http://www.w3.org/2000/svg">
<path d="M28.4616 34.097C19.7574 41.9765 16.5895 59.8305 32.2804 70.2675L94.8785 113.214L64.5267 43.678C58.1665 27.269 40.767 23.6908 28.4616 34.097Z" fill="#9D9D9D"/>
<path d="M82.3468 0.287943C72.1715 0.495266 56.8921 12.6123 63.6918 31.1153L95.0839 105.15L106.115 27.2797C108.667 7.9306 94.0246 -1.00137 82.3468 0.287943Z" fill="#9D9D9D"/>
<path d="M111.013 24.3102H116.949C116.949 24.3102 120.119 24.3102 120.55 25.8056C118.215 27.7132 111.856 27.9522 112.701 38.1415L122.679 105.14L153.857 30.911C160.234 14.337 146.848 0.495149 134.974 0.0721106C134.42 0.0323245 133.863 9.35478e-09 133.287 9.35478e-09C122.63 -0.000310819 110.416 7.74523 111.013 24.3102Z" fill="#9D9D9D"/>
<path d="M152.602 44.309L123.113 113.011L185.693 69.8377C200.118 59.6058 197.792 43.2475 189.717 35.1616C186.331 31.3558 180.116 28.416 173.531 28.416C165.753 28.4145 157.428 32.5404 152.602 44.309Z" fill="#9D9D9D"/>
<path d="M178.686 79.6131L119.916 120.663H192.279C207.125 120.663 216.665 105.356 212.424 91.3093C209.584 82.4799 201.179 75.549 191.425 75.5391C187.319 75.5406 182.964 76.7774 178.686 79.6131Z" fill="#9D9D9D"/>
<path d="M26.7752 120.662H98.0703L39.2854 79.6123C25.7047 70.8867 10.4343 75.9924 4.92142 90.4723C0.248424 107.048 11.916 120.662 26.7752 120.662Z" fill="#9D9D9D"/>
<path d="M0 150.372C0 157.363 5.71521 170.089 27.5379 170.089C47.6578 170.089 54.0124 160.857 54.0124 156.623H38.4358C38.4358 156.623 37.6961 162.216 28.9093 162.216C20.1168 162.216 17.739 154.877 17.739 150.633C17.739 146.406 20.1168 139.463 28.9093 139.463C37.6961 139.463 38.4358 144.332 38.4358 144.332H54.0124C54.0124 140.094 49.35 130.992 27.5379 130.992C5.71521 130.992 0 144.545 0 150.372Z" fill="#9D9D9D"/>
<path d="M163.358 150.372C163.358 157.363 169.079 170.089 190.896 170.089C211.014 170.089 217.371 160.857 217.371 156.623H201.805C201.805 156.623 201.062 162.216 192.273 162.216C183.48 162.216 181.099 154.877 181.099 150.633C181.099 146.406 183.48 139.463 192.273 139.463C201.062 139.463 201.805 144.332 201.805 144.332H217.371C217.371 140.094 212.713 130.992 190.896 130.992C169.079 130.992 163.358 144.545 163.358 150.372Z" fill="#9D9D9D"/>
<path d="M96.5831 131.645V155.311L78.4552 131.645H58.063V169.131H72.0431V145.192L89.8536 169.131H110.564V131.645H96.5831Z" fill="#9D9D9D"/>
<path d="M141.382 160.175V160.225H129.733V153.342H141.382V153.364C143.869 153.364 145.879 154.893 145.879 156.775C145.879 158.653 143.869 160.175 141.382 160.175ZM129.84 138.935H141.064V138.951C142.966 138.951 144.508 140.202 144.508 141.742C144.508 143.288 142.966 144.528 141.064 144.528V144.545H129.84V138.935ZM152.822 149.202C155.368 149.202 160.689 146.247 160.689 140.524C160.689 132.373 145.512 131.645 143.184 131.645H115.221V169.131H143.184C156.633 169.131 162.035 164.882 162.035 157.787C162.035 150.692 152.822 149.202 152.822 149.202Z" fill="#9D9D9D"/>
</svg>
