<svg width="597" height="117" viewBox="0 0 597 117" fill="none" xmlns="http://www.w3.org/2000/svg">
<path fill-rule="evenodd" clip-rule="evenodd" d="M53.4322 0L52.0402 20.972H41.8181L40.8832 7.92506H24.6255V39.1459H31.596C32.1154 36.8168 32.531 34.4878 33.4555 32.1535H40.8832V53.5892H33.923L32.0635 46.5968H25.0929V79.683H41.3506L42.7427 65.2345L53.8893 65.7555L54.8243 87.6601H1.40242V80.2092L8.83006 78.8128V8.85251L0 7.45612V0.0052175H53.4218L53.4322 0ZM241.98 116.964C241.98 114.634 242.499 112.769 242.499 110.904L248.073 109.507V34.9984C245.751 34.4774 243.891 34.4774 241.57 34.0605V28.0008L259.23 25.6717C259.749 28.0008 260.622 30.3299 261.089 32.1952C261.609 32.1952 261.609 31.6742 262.024 31.6742C266.205 26.5471 271.779 25.1507 278.282 25.6144C286.177 26.5523 290.826 31.6742 292.685 38.6613C293.62 41.923 294.545 45.1848 294.545 48.4465C295.064 55.4389 295.064 62.4261 294.025 68.9495C293.506 71.2786 292.633 74.0766 291.703 76.4004C288.452 83.3928 282.873 87.582 275.446 88.0509C271.264 88.5719 267.551 88.0509 263.832 86.1856H262.897V109.544L268.938 110.94C268.938 112.806 268.418 114.666 268.418 117H241.938L241.98 116.964ZM262.886 78.2866C267.53 80.1519 272.236 80.6156 276.822 78.8076C277.652 78.4404 278.316 77.775 278.682 76.9423C279.201 74.6132 280.074 72.2842 280.074 69.9499C281.009 62.9575 281.009 55.5014 280.593 48.5142C280.582 45.9649 280.11 43.4387 279.201 41.0581C277.809 35.9311 274.09 34.0657 268.979 34.9984H268.044C264.793 35.5194 262.933 37.7964 262.933 41.0581V78.2814L262.886 78.2866ZM439.42 79.6934L445.461 81.0898C445.461 83.4189 445.461 85.2842 444.941 87.6132H424.502V45.6693C424.502 43.804 423.983 41.9439 423.567 40.0786C423.048 37.7495 421.246 36.8168 418.924 36.3531C416.602 35.8894 414.742 35.8321 412.883 36.8742C411.023 37.9162 409.631 38.7395 409.631 41.0685V79.7455L415.672 81.1419C415.672 83.0072 415.153 85.3363 415.153 87.6653H389.141V81.1523L395.181 79.7559V35.483C392.859 34.9619 391 34.9619 388.678 34.5451V27.9487L405.819 25.6196L407.211 31.2104C408.603 30.2726 410 28.8814 411.392 27.9487C416.966 24.2232 423.469 23.7543 429.509 26.0834C434.62 27.9487 437.405 32.1431 438.34 37.7339C438.859 39.1303 438.859 40.9956 438.859 42.392V77.3435C439.197 78.0716 439.357 78.87 439.326 79.6726L439.42 79.6934ZM79.8601 80.2144L85.9009 81.6108C85.9009 83.9399 85.3814 85.8052 85.3814 88.1343H58.9017C58.9017 86.269 58.9017 83.9399 59.4211 81.6108L64.9944 80.2144C65.5138 78.8181 65.5138 38.2705 64.9944 35.9415C63.1349 35.4204 60.8131 35.4204 58.4913 35.0036V28.4176L75.632 26.0886L77.0241 31.6794L78.4161 30.283C83.9894 25.6249 90.4925 24.2233 97.463 26.0886C103.504 27.485 106.813 31.6794 108.147 37.7391C108.667 39.1355 108.667 41.0008 108.667 42.3972V79.6778L114.708 81.0741V87.6601H94.2686V47.1231C94.2686 45.7267 94.2686 43.8613 93.7492 42.4649C93.2298 38.7395 90.96 36.8742 87.7084 36.4052C84.9192 35.8842 82.5974 36.4052 80.7379 38.7343C79.8029 39.6721 79.8029 40.5996 79.8029 41.996V80.2092L79.8601 80.2144ZM533.309 34.0188C530.988 34.0188 529.128 33.4978 526.806 33.4978V27.907L546.783 25.578C547.718 27.907 548.642 30.2361 548.642 33.0289V80.0946L554.683 81.491C554.683 83.8201 554.164 85.6854 554.164 88.0144H537.023C536.504 86.618 536.088 84.7527 535.631 82.8874C535.112 83.4084 534.696 83.8253 534.239 83.8253C527.269 90.3487 517.981 89.416 511.941 86.6233C507.297 84.2942 504.97 80.5635 504.045 75.4417C503.526 73.5764 503.526 72.18 503.526 70.3146V34.4305C501.204 33.9094 498.882 33.9094 497.023 33.4926V27.9487L516.532 25.6196C517.052 27.9487 517.924 29.814 517.924 32.1431V67.5583C517.924 68.9547 517.924 70.8201 518.444 72.2164C518.963 76.4108 521.695 79.2088 525.871 79.2088C527.263 79.2088 529.123 78.6878 530.515 78.6878C531.907 78.1667 534.229 75.4261 534.229 74.0297V35.3475C533.294 34.8265 533.294 34.4096 533.294 33.9511L533.309 34.0188ZM209.106 60.5764C209.106 65.7034 210.041 69.9551 212.358 74.0922C214.679 77.3539 217.931 79.2192 222.112 79.683C226.294 79.683 230.007 78.7451 233.726 77.3539C234.246 77.3539 234.661 76.8329 235.586 76.8329C236.521 78.6982 236.978 80.5583 237.908 82.4237C236.973 83.3615 235.586 83.82 234.656 84.7527C227.228 88.9471 219.333 90.3435 211.428 87.5507C204.457 85.6854 200.281 81.0273 197.024 74.5038C193.773 67.5114 192.843 60.0553 193.773 52.5992C194.292 47.9411 195.165 43.2205 197.024 39.0834C200.276 32.091 205.335 27.4329 212.815 26.0365C220.294 24.6401 226.751 25.5154 232.324 30.6946C235.575 33.9563 237.435 38.1455 238.827 42.3451C240.219 47.0032 240.687 51.2028 240.687 55.8609C240.687 57.2573 239.752 58.6589 239.294 60.519H209.101L209.106 60.5764ZM227.223 52.6565C227.223 50.7912 226.704 49.3948 226.704 47.9984C226.184 44.273 225.769 41.006 223.915 37.7443C222.055 34.0188 218.804 33.0862 215.085 34.4826C213.693 35.0036 212.763 35.879 211.833 37.2806C209.974 42.4076 209.044 47.5347 208.581 52.6513V54.0477L227.161 52.6513L227.223 52.6565ZM493.423 60.5764L463.23 61.0974C462.71 63.4265 463.23 65.2918 463.749 67.1571C464.225 70.2181 465.507 73.096 467.463 75.4938C469.785 78.2918 472.574 79.6882 476.293 79.6882C480.012 79.6882 483.721 79.1672 487.44 77.8229C488.375 77.3018 488.832 77.3018 489.762 76.885C490.697 78.7503 491.154 80.6104 492.083 82.4758C491.564 82.4758 491.564 82.9968 491.148 82.9968C484.645 87.6549 477.675 89.0565 469.78 88.5876C460.43 87.6497 453.989 82.0641 450.733 73.2168C446.089 62.0353 446.551 50.8485 451.252 39.6617C454.041 32.6693 459.147 27.5475 467.042 26.1459C473.083 24.7495 479.119 25.208 484.183 28.9439C487.897 31.7419 490.224 35.4673 492.078 39.198C493.938 44.3251 494.867 50.3796 494.867 55.9756C494.867 57.3719 493.932 58.7736 493.475 60.6337L493.423 60.5764ZM481.809 52.6565C481.809 48.4621 481.29 44.7367 479.95 41.006C479.43 39.1407 478.558 37.2806 477.161 35.879C474.839 32.6172 467.406 33.5499 466.476 37.7443C465.541 41.006 464.617 44.2677 464.154 47.9984C463.635 49.8637 463.635 51.7239 463.635 54.0581L481.752 52.6617L481.809 52.6565ZM386.569 60.5764L356.376 61.0974C356.376 66.6882 357.311 71.3515 360.557 75.5459C362.879 78.3439 365.668 79.7403 368.868 79.7403C372.582 79.7403 376.763 79.2192 380.014 77.875C380.949 77.3539 381.406 77.3539 382.336 76.9371C383.271 78.8024 383.728 80.6625 384.658 82.5279C383.723 83.0489 383.266 83.4657 382.798 83.9243C376.146 88.059 368.194 89.5547 360.5 88.1186C353.072 86.7223 347.956 82.0589 344.71 75.5355C341.458 68.5431 340.528 61.5559 340.996 54.0998C341.515 48.9728 342.388 44.3146 344.247 39.6513C346.569 34.0605 350.288 29.8661 355.862 27.5371C362.365 24.7391 368.868 24.7391 375.371 28.0581C379.552 30.3872 382.341 34.1178 384.201 38.3122C386.523 43.903 387.452 49.9627 387.452 56.0277C387.972 57.4241 386.933 58.8257 386.517 60.6858L386.569 60.5764ZM374.955 52.6565C374.955 50.7912 374.436 48.9311 374.436 47.0657C373.916 43.804 373.501 40.5423 371.647 37.687C369.325 33.9615 366.073 32.5599 362.297 34.4253C361.362 34.9463 360.438 35.3631 359.975 36.7543C358.116 40.4798 357.186 44.6742 356.724 48.8685C356.724 50.2649 356.204 51.6665 356.204 53.5267C362.245 53.5267 368.281 53.0056 374.784 52.5888L374.955 52.6565ZM169.563 26.0938L170.955 31.6846C171.89 31.1635 172.347 30.7467 173.277 30.2882C177.458 27.9591 182.107 26.5627 186.75 26.0938C189.072 25.5728 190.932 26.6148 192.324 28.4229L190.464 44.7315C187.213 44.7315 183.961 44.2104 180.71 44.2104C180.19 41.4124 179.775 38.6197 179.775 35.3527C177.453 35.3527 175.593 36.2906 173.734 37.6818V79.6257L179.775 81.0221C179.775 82.8874 179.775 85.2164 179.255 87.0818H153.305V81.0221L158.879 79.6257V35.3996C156.557 34.8786 154.697 34.8786 152.376 34.4617V27.9487C157.949 27.9487 163.522 27.0108 169.516 26.0834L169.563 26.0938ZM557.462 87.6601C557.462 85.3311 557.462 83.4657 557.982 81.6004L563.555 80.204V35.9311C561.695 35.41 559.374 35.41 557.052 34.9932V28.4176L574.712 26.0886L576.104 31.2156L583.532 27.9539C586.321 27.016 588.643 26.5575 591.427 26.0886C593.748 25.5675 595.608 26.0886 597 28.4176L595.14 44.7263C591.889 44.7263 588.637 44.2052 585.386 44.2052C584.866 41.4072 584.451 38.1455 584.451 35.3475L578.41 37.6766V80.0894L584.451 81.4858C584.451 83.3511 583.932 85.6802 583.932 87.5455H557.452L557.462 87.6601ZM326.53 35.4152L320.489 37.7443V80.1571L326.53 81.5535C326.53 83.8826 326.011 85.7479 326.011 87.6132H299.999V81.5535L305.572 80.1571V35.8842C303.25 35.3631 301.391 35.3631 299.069 34.9463V28.4176L316.729 26.0886L318.121 31.2156L323.232 28.4176C326.483 27.0212 329.735 26.0886 333.454 25.6196C336.243 25.6196 338.098 26.5575 339.495 28.4176L337.635 44.7263C334.384 44.7263 331.132 44.2052 327.881 44.2052L326.489 35.3475L326.53 35.4152ZM136.071 14.4433V27.0265H146.813C146.293 29.8245 146.293 32.1535 146.293 34.9463C143.042 34.9463 139.79 35.4673 136.539 35.8842V75.4938C137.058 77.8229 138.398 79.6882 141.182 79.6882H147.223C147.223 82.0172 147.742 83.8826 147.742 86.2116C146.35 87.1495 144.491 87.608 142.631 88.077C138.918 89.0148 135.204 89.0148 131.485 88.598C125.911 87.6601 122.135 83.9399 121.263 77.8802V35.9363C118.941 35.4152 116.619 34.9984 114.292 34.9984C114.292 32.6693 114.292 29.8713 114.811 27.5475C117.601 27.5475 119.923 27.0265 122.707 27.0265L125.958 15.376L136.18 14.4381L136.071 14.4433Z" fill="#9D9D9D"/>
</svg>
