<svg width="353" height="93" viewBox="0 0 353 93" fill="none" xmlns="http://www.w3.org/2000/svg">
<path d="M34.0777 8.66921H41.8083C46.5162 7.97106 51.3242 8.58488 55.7099 10.444C61.212 13.7762 65.2029 19.1408 66.8311 25.3933C67.9839 28.6698 67.9839 28.6698 70.7642 27.5094H72.9342V1.57002H0.171566V6.14354H3.15531C4.45191 6.1345 5.73406 6.41799 6.90754 6.97318C8.08103 7.52837 9.11604 8.34116 9.93654 9.35183C12.7168 13.8571 13.1915 18.9084 13.1915 45.1891C13.1915 73.1081 12.5812 79.9342 9.93654 83.4156C9.28364 84.3106 8.43834 85.0455 7.46374 85.5656C6.48914 86.0857 5.41042 86.3774 4.30812 86.4191C0.171566 87.17 0.171566 87.1017 0.171566 88.9448C-0.0571887 89.5611 -0.0571887 90.2398 0.171566 90.8561H46.0805C46.3843 90.2532 46.5426 89.5867 46.5426 88.9106C46.5426 88.2346 46.3843 87.5681 46.0805 86.9652C44.9686 86.6538 43.8353 86.4256 42.6899 86.2826C41.4508 86.1342 40.226 85.8831 39.028 85.5317C37.3125 84.2709 35.9535 82.5814 35.0853 80.63C34.2171 78.6786 33.8698 76.5329 34.0777 74.4051C33.3996 69.8998 33.0605 61.6402 33.0605 54.814V49.4213H35.773C39.1525 49.3173 42.53 49.6848 45.8093 50.5135C47.3802 51.4908 48.7175 52.8051 49.7256 54.3627C50.7337 55.9202 51.3878 57.6826 51.6411 59.524L52.2514 61.6402H56.388V31.4003H52.5905L51.9802 34.3355C51.7234 36.2187 51.0313 38.0149 49.9596 39.5798C48.8878 41.1447 47.4663 42.4347 45.8093 43.3461C44.2045 43.8268 42.5138 43.9434 40.859 43.6874H33.0605V36.3151C33.0605 28.6698 33.4674 12.5601 33.7387 10.0344L34.0777 8.66921ZM351.439 62.8006C348.234 57.6073 343.234 53.7903 337.402 52.0835C332.931 50.6767 328.798 48.3524 325.264 45.2574C324.469 44.4831 323.874 43.5246 323.531 42.4657C323.188 41.4067 323.108 40.2794 323.297 39.1821C323.303 37.0298 324.156 34.9675 325.671 33.4481C326.697 32.3659 327.996 31.5847 329.43 31.188C330.863 30.7912 332.376 30.7938 333.808 31.1955C336.773 32.046 339.453 33.6878 341.566 35.947C343.68 38.2063 345.146 40.9988 345.811 44.0287C346.896 47.1005 347.032 47.1005 348.998 46.2813L350.219 45.8035V28.8064L349.337 28.3968C342.661 26.0365 335.579 25.0613 328.519 25.5298C322.438 25.6849 316.635 28.1192 312.244 32.356C310.253 34.2324 308.693 36.5243 307.674 39.0712C306.655 41.6181 306.201 44.3585 306.344 47.1005C306.382 51.2926 308.035 55.3061 310.955 58.2953C314.182 61.49 318.142 63.8345 322.484 65.1215C332.994 69.2854 336.046 71.9476 336.046 76.7942C336.091 78.838 335.444 80.8365 334.212 82.4615C332.98 84.0865 331.235 85.2414 329.265 85.7365C326.897 86.2601 324.444 86.2601 322.077 85.7365C318.977 84.5253 316.208 82.5864 314.003 80.0812C311.797 77.576 310.218 74.5769 309.396 71.3333L308.514 69.1489H307.294C306.71 69.1926 306.138 69.3309 305.598 69.5585H304.92V88.9448H306.073C310.654 90.4789 315.381 91.5312 320.178 92.0848H326.959C329.9 92.302 332.856 92.0252 335.707 91.2657C339.326 90.5934 342.707 88.9796 345.515 86.5846C348.322 84.1896 350.458 81.0967 351.711 77.6134C352.52 75.6678 352.935 73.579 352.931 71.4698C353.198 68.4984 352.684 65.5084 351.439 62.8006V62.8006ZM287.56 27.5094C283.497 25.792 279.118 24.9589 274.712 25.0648C270.306 25.1707 265.972 26.2131 261.995 28.1238C258.256 29.9646 254.942 32.5743 252.268 35.7841C249.593 38.994 247.616 42.7328 246.466 46.7591C244.999 51.1514 244.378 55.7849 244.635 60.4114C244.586 62.9287 244.791 65.4444 245.245 67.9202C246.34 74.0078 249.26 79.6123 253.612 83.9807C257.964 88.3492 263.539 91.2725 269.59 92.3578C273.53 92.8575 277.517 92.8575 281.457 92.3578C285.546 91.6324 289.459 90.1264 292.985 87.9208C295.902 86.2747 298.371 83.9302 300.173 81.0947C300.058 80.6498 299.854 80.233 299.574 79.8694C299.294 79.5057 298.945 79.2027 298.546 78.9786C297.772 79.2607 297.041 79.6514 296.376 80.139C293.003 82.3767 289.02 83.4983 284.983 83.3473C282.304 83.5296 279.618 83.1097 277.12 82.118C274.622 81.1263 272.374 79.5875 270.539 77.6134C269.12 76.2865 267.949 74.7144 267.081 72.9716C264.974 68.7279 263.838 64.0628 263.758 59.3193V56.6571H301.326V55.2918C301.409 53.9279 301.409 52.5601 301.326 51.1961C301.313 46.3762 300.032 41.6458 297.614 37.4854C295.196 33.3251 291.727 29.8832 287.56 27.5094V27.5094ZM268.641 51.1279H263.894V47.1005C265.453 36.793 269.319 30.6494 274.066 30.6494C278.812 30.6494 280.847 36.7247 281.728 47.8513V50.9914H277.66L268.641 51.1279ZM171.126 25.2568C168.783 25.1653 166.454 25.6577 164.345 26.6903C159.762 28.9308 156.06 32.6572 153.834 37.2708L152.953 38.9091V25.2568H152.614C151.8 25.2568 126.709 30.3081 125.896 30.6494C125.082 30.9907 125.353 31.059 125.353 32.2877C125.353 33.5164 125.353 33.7212 125.896 33.7895L128.54 34.3355C129.281 34.3538 130.008 34.5416 130.666 34.8846C131.324 35.2275 131.896 35.7167 132.338 36.3151C134.033 38.5678 134.372 42.5269 134.372 59.3875C134.707 66.9779 134.389 74.5833 133.423 82.1186C133.195 83.2548 132.623 84.2919 131.785 85.0867C130.947 85.8815 129.884 86.3947 128.744 86.5556L126.438 87.0334H125.557V88.9448C125.311 89.5814 125.311 90.2877 125.557 90.9243H163.464V88.9448C163.595 88.2915 163.595 87.6184 163.464 86.9652C161.181 86.8756 158.912 86.5786 156.682 86.0778C155.468 85.4386 154.475 84.4443 153.834 83.2258C153.192 82.0073 152.932 80.6217 153.088 79.2516C152.546 75.2925 152.275 63.688 152.41 54.814C152.546 45.94 152.41 45.3939 153.156 44.7796C155.425 43.0282 158.233 42.1343 161.09 42.2539C163.783 42.313 166.427 42.9901 168.821 44.2335C169.651 44.6973 170.541 45.042 171.465 45.2574C171.465 45.2574 178.247 28.7381 178.247 27.9872C177.379 26.9721 176.273 26.1909 175.03 25.7141C173.787 25.2374 172.445 25.0802 171.126 25.2568V25.2568ZM125.421 53.9266C125.184 49.0487 123.793 44.2983 121.363 40.0712C118.933 35.8441 115.535 32.2628 111.452 29.6255C106.599 26.9902 101.2 25.5372 95.6883 25.3831C90.1767 25.229 84.7059 26.3781 79.7154 28.7381C72.6595 32.4835 67.332 38.8502 64.8645 46.4861C62.3159 55.0353 62.3159 64.1494 64.8645 72.6985C66.2006 77.3708 68.6979 81.6232 72.1204 85.0539C76.3831 89.2407 81.8795 91.9233 87.7851 92.6991C91.576 93.0183 95.3867 93.0183 99.1776 92.6991C100.573 92.4855 101.954 92.1892 103.314 91.8117C108.834 90.2575 113.8 87.153 117.63 82.8615C121.461 78.57 123.999 73.2691 124.946 67.5789C125.623 63.0614 125.782 58.4807 125.421 53.9266V53.9266ZM97.211 88.0574C90.4298 90.1052 85.3438 83.4838 83.6485 69.5585C83.026 62.2679 83.026 54.9371 83.6485 47.6465C85.0048 36.4517 88.4632 30.7859 93.8204 30.7859C94.9012 30.7185 95.9824 30.9126 96.9734 31.352C97.9644 31.7915 98.8365 32.4634 99.5166 33.3116C104.06 37.8851 106.298 46.9639 106.298 60.6162C106.862 68.3427 105.656 76.0963 102.772 83.2791C101.498 85.3739 99.5278 86.9461 97.211 87.7161V88.0574V88.0574ZM219.273 26.622C217.36 26.3741 215.423 26.3741 213.509 26.622C209.836 26.6188 206.205 27.4104 202.863 28.9429L200.76 29.8303V15.0175C201.128 10.0185 201.128 4.99902 200.76 0C199.947 0 174.042 4.98309 173.635 5.18788C173.435 5.69185 173.435 6.25391 173.635 6.75789C173.635 8.19138 173.635 8.12312 176.687 8.80574C177.544 8.99915 178.367 9.32132 179.128 9.7614C180.452 11.0144 181.333 12.6682 181.637 14.4714C182.409 19.6663 182.659 24.9263 182.383 30.1716V90.1052L184.214 90.5148C186.927 91.1291 194.589 92.4261 197.099 92.6991C202.109 93.1003 207.143 93.1003 212.153 92.6991C217.714 92.1274 223.015 90.0389 227.484 86.6588C231.953 83.2788 235.421 78.7352 237.515 73.5177C238.763 70.169 239.627 66.6879 240.092 63.1419C240.495 58.3387 240.336 53.5044 239.617 48.7387C238.889 43.3967 236.547 38.4092 232.908 34.4528C229.269 30.4963 224.508 27.7625 219.273 26.622V26.622ZM201.506 86.8969C201.506 86.0095 200.828 56.111 200.964 44.1652V34.8134L202.93 34.3355C204.257 34.1442 205.604 34.1442 206.931 34.3355C208.399 34.1854 209.875 34.5209 211.136 35.2912C213.668 37.0506 215.771 39.3653 217.286 42.0611C218.802 44.7569 219.69 47.7636 219.883 50.8548C220.377 55.8255 220.377 60.8334 219.883 65.8041C219.478 73.0286 216.712 79.9158 212.017 85.3952C210.685 86.6693 209.011 87.5235 207.203 87.8526C205.834 88.0922 204.435 88.0922 203.066 87.8526C201.778 87.8526 201.778 87.443 201.778 86.8969H201.506Z" fill="#9D9D9D"/>
</svg>
