<svg width="25" height="25" viewBox="0 0 25 25" fill="none" xmlns="http://www.w3.org/2000/svg">
<path fill-rule="evenodd" clip-rule="evenodd" d="M18.4157 4.15381C17.833 4.15381 17.3077 4.5048 17.0847 5.04311C16.8618 5.58143 16.985 6.20106 17.397 6.61307C17.809 7.02508 18.4286 7.14833 18.967 6.92535C19.5053 6.70237 19.8563 6.17708 19.8563 5.59441C19.8563 4.79879 19.2113 4.15381 18.4157 4.15381ZM23.938 7.05894C23.9146 6.06288 23.7281 5.0774 23.3857 4.14173C23.0805 3.34115 22.6054 2.61622 21.9932 2.01684C21.3987 1.40149 20.6721 0.929399 19.8683 0.636265C18.9351 0.283511 17.9485 0.0926907 16.9511 0.07203C15.6785 0 15.2704 0 12.005 0C8.73964 0 8.33147 0 7.05894 0.07203C6.06151 0.0926907 5.07493 0.283511 4.14173 0.636265C3.3394 0.932367 2.61341 1.40406 2.01684 2.01684C1.40149 2.6113 0.929399 3.33792 0.636265 4.14173C0.283511 5.07493 0.0926907 6.06151 0.07203 7.05894C0 8.33147 0 8.73964 0 12.005C0 15.2704 0 15.6785 0.07203 16.9511C0.0926907 17.9485 0.283511 18.9351 0.636265 19.8683C0.929399 20.6721 1.40149 21.3987 2.01684 21.9932C2.61341 22.6059 3.3394 23.0776 4.14173 23.3737C5.07493 23.7265 6.06151 23.9173 7.05894 23.938C8.33147 24.01 8.73964 24.01 12.005 24.01C15.2704 24.01 15.6785 24.01 16.9511 23.938C17.9485 23.9173 18.9351 23.7265 19.8683 23.3737C20.6721 23.0806 21.3987 22.6085 21.9932 21.9932C22.6081 21.396 23.0836 20.6704 23.3857 19.8683C23.7281 18.9326 23.9146 17.9471 23.938 16.9511C23.938 15.6785 24.01 15.2704 24.01 12.005C24.01 8.73964 24.01 8.33147 23.938 7.05894ZM21.7771 16.8072C21.7683 17.5693 21.6303 18.3243 21.3689 19.0402C21.1772 19.5626 20.8693 20.0347 20.4685 20.4207C20.0791 20.8175 19.608 21.1248 19.0879 21.3211C18.3721 21.5825 17.6171 21.7205 16.855 21.7293C15.6545 21.7893 15.2103 21.8013 12.053 21.8013C8.89571 21.8013 8.45152 21.8013 7.25102 21.7293C6.45976 21.7441 5.67188 21.6223 4.92205 21.3691C4.42478 21.1627 3.97528 20.8563 3.6015 20.4688C3.20304 20.0831 2.89902 19.6106 2.71313 19.0882C2.42004 18.3621 2.25747 17.5899 2.23293 16.8072C2.23293 15.6067 2.1609 15.1625 2.1609 12.0052C2.1609 8.84792 2.1609 8.40373 2.23293 7.20323C2.23831 6.42417 2.38053 5.65212 2.65311 4.92228C2.86445 4.41557 3.18885 3.96387 3.6015 3.60173C3.96623 3.18896 4.41699 2.86114 4.92205 2.64133C5.65382 2.37728 6.42507 2.23926 7.203 2.23316C8.4035 2.23316 8.84768 2.16113 12.005 2.16113C15.1623 2.16113 15.6065 2.16113 16.807 2.23316C17.569 2.2419 18.3241 2.37992 19.0399 2.64133C19.5855 2.8438 20.0751 3.17297 20.4685 3.60173C20.8619 3.9705 21.1693 4.42135 21.3689 4.92228C21.6357 5.65331 21.7738 6.42504 21.7771 7.20323C21.8371 8.40373 21.8491 8.84792 21.8491 12.0052C21.8491 15.1625 21.8371 15.6067 21.7771 16.8072ZM12.005 5.84673C8.60529 5.85335 5.85403 8.61357 5.85845 12.0133C5.86286 15.413 8.62128 18.166 12.021 18.1638C15.4207 18.1616 18.1756 15.405 18.1756 12.0053C18.1788 10.3689 17.5293 8.79873 16.3711 7.64274C15.2128 6.48674 13.6414 5.84033 12.005 5.84673ZM12.005 16.0027C9.79715 16.0027 8.00733 14.2128 8.00733 12.005C8.00733 9.79714 9.79715 8.00732 12.005 8.00732C14.2128 8.00732 16.0027 9.79714 16.0027 12.005C16.0027 13.0652 15.5815 14.0821 14.8318 14.8318C14.0821 15.5815 13.0652 16.0027 12.005 16.0027Z" fill="#CACACA"/>
</svg>
