<svg width="407" height="113" viewBox="0 0 407 113" fill="none" xmlns="http://www.w3.org/2000/svg">
<path d="M266.239 80.3759V37.9986C266.239 26.9437 257.488 18.8828 245.511 18.8828C236.76 18.8828 228.929 23.0284 222.02 31.5499H221.099L220.177 21.6466C219.947 20.2647 218.795 19.1131 217.183 19.3434H216.953L190.007 25.3315C189.316 25.5618 188.855 26.2528 189.085 26.9437C189.085 27.174 189.316 27.4043 189.316 27.4043L194.843 34.544V80.3759L190.467 86.5942C190.007 87.2852 190.237 87.9761 190.697 88.4367C190.928 88.6671 191.158 88.667 191.619 88.667H225.474C226.165 88.667 226.856 87.9761 226.856 87.2852C226.856 87.0549 226.856 86.8246 226.626 86.5942L222.25 80.6062V36.8471C225.014 35.0046 228.008 34.0834 231.232 34.0834C236.529 34.0834 239.523 37.3077 239.523 42.8352V80.1455L234.917 86.8246C234.457 87.5155 234.687 88.2064 235.378 88.667C235.608 88.8974 235.838 88.8974 236.069 88.8974H269.924C270.615 88.8974 271.306 88.4367 271.306 87.5155C271.306 87.2852 271.306 86.8246 271.076 86.5942L266.239 80.3759Z" fill="white"/>
<path d="M149.011 18.8828C129.204 18.8828 109.167 30.859 109.167 54.8113C109.167 78.7637 129.204 90.7399 149.011 90.7399C168.818 90.7399 188.855 78.7637 188.855 54.8113C188.855 30.859 168.818 18.8828 149.011 18.8828ZM149.011 84.7518C141.641 84.7518 136.805 71.3937 136.805 54.8113C136.805 38.229 141.641 24.8709 149.011 24.8709C156.381 24.8709 161.218 38.229 161.218 54.8113C161.218 71.3937 156.381 84.7518 149.011 84.7518Z" fill="white"/>
<path d="M341.782 64.2568C342.012 63.7962 341.551 63.1052 341.091 62.8749C340.63 62.8749 340.17 62.8749 339.939 63.3355C334.642 68.863 327.503 72.3177 319.672 72.3177C313.223 72.7783 306.775 70.4752 301.938 65.8689L338.097 49.2866C339.479 48.5956 340.17 47.2138 339.939 45.6016C339.018 42.6075 338.097 39.6135 336.715 36.8498C331.648 26.7161 322.205 18.4249 308.156 18.8855C284.895 19.5764 271.307 34.3163 271.998 56.4262C272.688 77.6148 287.889 91.4335 309.769 90.7425C328.884 90.0516 337.867 79.227 341.782 64.2568ZM301.017 27.1767C309.078 23.9524 317.829 29.9404 320.133 46.9834L298.023 60.5718C290.653 48.135 293.186 30.1708 301.017 27.1767Z" fill="white"/>
<path d="M103.64 78.536V9.44275L108.937 2.0728C109.398 1.38187 109.167 0.690929 108.707 0.230307C108.476 -3.5177e-06 108.246 0 108.016 0H81.0695C80.1482 0 79.227 0.460618 78.7664 1.38186L55.2746 43.0681L33.3951 1.38186C32.9345 0.460618 32.0132 0 31.092 0H1.38187C0.690938 0 0 0.690929 0 1.38186C0 1.61217 8.75135e-07 1.84249 0.230312 2.0728L5.98809 13.5884V76.6936L0.230312 86.8272C-0.23031 87.5182 0.230309 88.2091 0.690931 88.6697C0.921242 88.6697 1.15156 88.9 1.38187 88.9H22.5705C23.2614 88.9 23.9523 88.4394 23.9523 87.7485C23.9523 87.2879 23.722 87.0576 23.4917 86.5969L14.7399 76.6936V26.2555L41.9166 80.8392C42.3772 81.5301 43.0682 81.7604 43.7591 81.2998C43.9894 81.0695 44.2197 81.0695 44.2197 80.8392L74.1601 26.2555V78.536L68.6327 86.5969C68.172 87.2879 68.4024 87.9788 69.0933 88.4394C69.3236 88.6697 69.5539 88.6697 69.7842 88.6697H108.016C108.707 88.6697 109.398 87.9788 109.398 87.2879C109.398 87.0576 109.398 86.8272 109.167 86.5969L103.64 78.536Z" fill="white"/>
<path d="M404.886 20.7266H388.304C387.613 20.7266 386.922 21.1872 386.922 22.1084C386.922 22.569 387.152 22.7994 387.383 23.0297L394.062 29.939L381.164 64.4857L368.267 28.7874L373.334 23.26C373.794 22.7994 373.794 21.8781 373.334 21.4175C373.103 21.1872 372.643 20.9569 372.413 20.9569H336.714C336.023 20.9569 335.332 21.6478 335.332 22.3387C335.332 22.569 335.332 22.7994 335.563 23.0297L339.017 28.5571L365.503 92.3533C366.885 95.5776 365.273 99.2626 362.049 100.644C355.6 103.408 351.454 93.7351 346.848 91.432C341.781 88.6683 335.563 90.2805 332.569 95.117C329.575 99.9535 331.187 106.402 336.023 109.396C348 116.536 367.115 114.924 379.092 87.2864L382.086 80.3771L401.432 30.6299L405.808 23.0297C406.268 22.3387 406.268 21.6478 405.577 21.1872C405.577 20.9569 405.117 20.7266 404.886 20.7266Z" fill="white"/>
</svg>
