<svg width="485" height="90" viewBox="0 0 485 90" fill="none" xmlns="http://www.w3.org/2000/svg">
<path d="M8 17.8323C8 7.47228 16.05 1.21228 27 1.21228C40 1.21228 48.91 12.8923 51.32 25.0523H52.41L52.57 0.302279L51.34 0.242279C49.5656 1.41852 47.4674 2.00952 45.34 1.93228C41.59 1.93228 32.43 0.00227899 27.26 0.00227899C15.57 0.00227899 1.12 6.75228 1.12 24.6923C1.12 59.6223 49.54 44.6923 49.54 68.7823C49.54 81.9123 39.9 87.4523 29.18 87.4523C14.61 87.4523 5.09 77.0923 1.12 59.2623H0V87.9323H1.48C3.3398 86.8174 5.45286 86.1945 7.62 86.1223C11.36 86.1223 19.55 88.7723 28.94 88.7723C42.31 88.7723 57.37 80.7723 57.37 61.1923C57.37 26.2623 8 41.0723 8 17.8323ZM143.77 2.65228V1.45228H115.58V2.65228H116.58C125.58 2.65228 128.86 6.75228 128.86 25.6523V56.7323C128.86 78.8923 118.14 86.9623 101.76 86.9623C84.39 87.0023 82 75.6423 82 57.9423V7.11228C82 2.89228 82.48 2.65228 83.2 2.65228H92.2V1.45228H56.92V2.65228H65.92C66.64 2.65228 67.12 2.89228 67.12 7.11228V55.8923C67.12 79.5023 74.35 89.1323 99.64 89.1323C117.95 89.1323 130.48 81.1823 130.48 56.7323V25.6623C130.48 6.75228 133.73 2.66228 142.76 2.66228L143.77 2.65228Z" fill="white"/>
<path d="M177.76 87.572C158 87.572 154.99 68.572 154.99 42.572C154.99 17.642 157.76 1.37195 177.15 1.37195C189.56 1.37195 198.47 8.12195 204.5 26.072H205.58L205.51 1.13195H203.41C201.849 2.30977 199.955 2.96425 198 3.00195C194.39 3.00195 186.56 0.00195312 177.4 0.00195312C157.4 0.00195312 138 14.572 138 44.692C138 75.402 158.23 88.892 178.23 88.892C188.59 88.892 193.23 85.282 198.1 85.282C200.079 85.2933 202.011 85.8919 203.65 87.002H205.51L205.68 60.522L204.74 60.382C201.85 75.402 193.65 87.572 177.76 87.572ZM252.05 87.572C232.3 87.572 229.29 68.572 229.29 42.572C229.29 17.642 232.06 1.37195 251.45 1.37195C263.85 1.37195 272.77 8.12195 278.79 26.072H279.87L279.8 1.08195H277.71C276.152 2.27842 274.254 2.95056 272.29 3.00195C268.67 3.00195 260.84 0.00195312 251.69 0.00195312C231.69 0.00195312 212.3 14.572 212.3 44.692C212.3 75.402 232.54 88.892 252.53 88.892C262.89 88.892 267.59 85.282 272.41 85.282C274.403 85.2884 276.348 85.8871 278 87.002H279.85L280 60.482L279.06 60.342C276.14 75.402 268 87.572 252.05 87.572ZM327 2.65195C343.74 2.65195 347.35 9.15195 353 24.572L354 24.422V1.42195H288.3V2.62195H297.3C298.02 2.62195 298.5 2.86195 298.5 7.08195V81.542C298.5 85.762 298.02 86.002 297.3 86.002H288.3V87.212H354L353.85 61.212H352.77C343.07 83.232 345 86.002 328.47 86.002C314.62 86.002 313.42 85.882 313.42 79.002V43.482H322.09C329.44 43.692 334.79 43.692 337.02 55.752H338.11V28.692H337C336.28 36.882 333 41.632 322.19 42.282H313.4V8.91195C313.42 3.25195 315.22 2.65195 327 2.65195ZM370 17.832C370 7.47195 378.07 1.21195 389 1.21195C402 1.21195 410.91 12.892 413.31 25.052H414.4L414.56 0.301953L413.34 0.241953C411.564 1.41452 409.467 2.00517 407.34 1.93195C403.58 1.93195 394.43 0.00195312 389.25 0.00195312C377.56 0.00195312 363.11 6.75195 363.11 24.692C363.11 59.622 411.53 44.692 411.53 68.782C411.53 81.912 401.89 87.452 391.17 87.452C376.6 87.452 367.08 77.092 363.11 59.262H362V87.932H363.48C365.34 86.8183 367.453 86.1955 369.62 86.122C373.36 86.122 381.55 88.7719 390.94 88.7719C404.31 88.7719 419.37 80.772 419.37 61.192C419.36 26.262 370 41.072 370 17.832ZM435 17.832C435 7.47195 443 1.21195 454 1.21195C467 1.21195 475.91 12.892 478.32 25.052H479.41L479.56 0.301953L478.33 0.241953C476.556 1.4182 474.457 2.00919 472.33 1.93195C468.58 1.93195 459.42 0.00195312 454.24 0.00195312C442.56 0.00195312 428.11 6.75195 428.11 24.692C428.11 59.622 476.53 44.692 476.53 68.782C476.53 81.912 466.89 87.452 456.17 87.452C441.6 87.452 432.08 77.092 428.11 59.262H427V87.932H428.48C430.34 86.8171 432.453 86.1942 434.62 86.122C438.36 86.122 446.55 88.7719 455.94 88.7719C469.31 88.7719 484.37 80.772 484.37 61.192C484.36 26.262 435 41.072 435 17.832Z" fill="white"/>
</svg>
